<?xml version="1.0" encoding="UTF-8"?>
<!DOCTYPE svg PUBLIC "-//W3C//DTD SVG 1.1//EN" "http://www.w3.org/Graphics/SVG/1.1/DTD/svg11.dtd">
<!-- Creator: CorelDRAW 2020 (64-Bit) -->
<svg xmlns="http://www.w3.org/2000/svg" xml:space="preserve" width="4.28914in" height="3.97223in" version="1.1" style="shape-rendering:geometricPrecision; text-rendering:geometricPrecision; image-rendering:optimizeQuality; fill-rule:evenodd; clip-rule:evenodd"
viewBox="0 0 3251.21 3010.99"
 xmlns:xlink="http://www.w3.org/1999/xlink"
 xmlns:xodm="http://www.corel.com/coreldraw/odm/2003">
 <defs>
  <style type="text/css">
   <![CDATA[
    .str0 {stroke:#978667;stroke-width:42.11;stroke-miterlimit:2.61313}
    .str2 {stroke:#978667;stroke-width:42.11;stroke-miterlimit:2.61313}
    .str3 {stroke:#978667;stroke-width:42.11;stroke-miterlimit:2.61313}
    .str4 {stroke:#978667;stroke-width:42.11;stroke-miterlimit:2.61313}
    .str1 {stroke:#978667;stroke-width:42.11;stroke-miterlimit:2.61313}
    .fil0 {fill:#978667;fill-rule:nonzero}
   ]]>
  </style>
 </defs>
 <g id="Layer_x0020_1">
  <metadata id="CorelCorpID_0Corel-Layer"/>
  <g id="_2285703395120">
   <g>
    <path class="fil0 str0" d="M620.96 1386.5c-12.63,0 -25.27,12.63 -25.27,25.27l0 429.54c0,12.63 12.63,25.27 25.27,25.27 12.64,0 25.27,-12.63 25.27,-25.27l0 -429.54c0,-18.95 -12.63,-25.27 -25.27,-25.27z"/>
    <path class="fil0 str0" d="M1042 1386.5c-12.63,0 -25.27,12.63 -25.27,25.27l0 429.54c0,12.63 12.63,25.27 25.27,25.27 12.64,0 25.27,-12.63 25.27,-25.27l0 -429.54c0,-18.95 -12.63,-25.27 -25.27,-25.27z"/>
    <g>
     <path class="fil0 str0" d="M731.69 273.73c-271.62,50.53 -467.44,284.25 -467.44,555.88l0 1876.08c0,12.63 12.63,25.27 25.27,25.27l448.49 -0c12.63,0 25.27,-12.63 25.27,-25.27l0 -2406.69c0,-6.32 0,-12.63 -6.32,-18.95 -12.63,-6.32 -18.95,-6.32 -25.27,-6.32l0 0zm-18.95 2413l-397.96 0 0 -1850.81c0,-240.04 164.23,-448.49 397.96,-505.34l0 2356.15z"/>
     <path class="fil0 str0" d="M933.83 273.73c-6.32,0 -12.63,0 -18.95,6.32 -6.32,6.32 -6.32,12.63 -6.32,18.95l0 2413c0,12.63 12.63,25.27 25.27,25.27l448.49 -0c12.63,0 25.27,-12.63 25.27,-25.27l0 -1876.08c0,-151.6 -56.85,-296.89 -164.23,-397.96 -94.75,-88.43 -195.82,-145.28 -309.52,-164.23l-0 0zm416.91 2413l-397.96 0 0 -2362.47c94.75,18.95 176.87,69.48 246.35,138.97 101.07,101.07 151.6,227.4 151.6,366.37l0 1857.12z"/>
    </g>
    <path class="fil0 str0" d="M1625.51 640.1c-88.43,-353.74 -404.27,-619.04 -789.59,-619.04 -448.49,0 -814.86,366.37 -814.86,814.86l0 2128.75c0,12.63 12.63,25.27 25.27,25.27l1604.46 0 0 -2154.02c-0.4,-67.95 -9.08,-133.14 -25.27,-195.82zm-1553.92 195.82c0,-423.22 341.11,-764.33 764.33,-764.33 423.22,0 764.33,341.11 764.33,764.33l0 2103.48 -1528.66 0 0 -2103.48z"/>
   </g>
   <g>
    <path class="fil0 str1" d="M2630.25 1386.5c12.63,0 25.27,12.63 25.27,25.27l0 429.54c0,12.63 -12.63,25.27 -25.27,25.27 -12.64,0 -25.27,-12.63 -25.27,-25.27l0 -429.54c0,-18.95 12.63,-25.27 25.27,-25.27z"/>
    <path class="fil0 str2" d="M2206.23 1386.5c12.63,0 25.27,12.63 25.27,25.27l0 429.54c0,12.63 -12.63,25.27 -25.27,25.27 -12.64,0 -25.27,-12.63 -25.27,-25.27l0 -429.54c0,-18.95 12.63,-25.27 25.27,-25.27z"/>
    <g>
     <path class="fil0 str3" d="M2519.52 273.73c271.62,50.53 467.44,284.25 467.44,555.88l0 1876.08c0,12.63 -12.63,25.27 -25.27,25.27l-448.49 -0c-12.63,0 -25.27,-12.63 -25.27,-25.27l0 -2406.69c0,-6.32 0,-12.63 6.32,-18.95 12.63,-6.32 18.95,-6.32 25.27,-6.32l0 0zm18.95 2413l397.96 0 0 -1850.81c0,-240.04 -164.23,-448.49 -397.96,-505.34l0 2356.15z"/>
     <path class="fil0 str3" d="M2317.39 273.73c6.32,0 12.63,0 18.95,6.32 6.32,6.32 6.32,12.63 6.32,18.95l0 2413c0,12.63 -12.63,25.27 -25.27,25.27l-448.49 -0c-12.63,0 -25.27,-12.63 -25.27,-25.27l0 -1876.08c0,-151.6 56.85,-296.89 164.23,-397.96 94.75,-88.43 195.82,-145.28 309.52,-164.23l0 0zm-416.91 2413l397.96 0 0 -2362.47c-94.75,18.95 -176.87,69.48 -246.35,138.97 -101.07,101.07 -151.6,227.4 -151.6,366.37l0 1857.12z"/>
    </g>
    <path class="fil0 str4" d="M1625.7 640.1c88.43,-353.74 404.27,-619.04 789.59,-619.04 448.49,0 814.86,366.37 814.86,814.86l0 2128.75c0,12.63 -12.63,25.27 -25.27,25.27l-1604.46 0 0 -2154.02c0.4,-67.95 9.08,-133.14 25.27,-195.82zm1553.92 195.82c0,-423.22 -341.11,-764.33 -764.33,-764.33 -423.22,0 -764.33,341.11 -764.33,764.33l0 2103.48 1528.66 0 0 -2103.48z"/>
   </g>
  </g>
 </g>
</svg>
