<?xml version="1.0" encoding="UTF-8"?>
<!DOCTYPE svg PUBLIC "-//W3C//DTD SVG 1.1//EN" "http://www.w3.org/Graphics/SVG/1.1/DTD/svg11.dtd">
<!-- Creator: CorelDRAW 2020 (64-Bit) -->
<svg xmlns="http://www.w3.org/2000/svg" xml:space="preserve" width="4.15283in" height="4.33346in" version="1.1" style="shape-rendering:geometricPrecision; text-rendering:geometricPrecision; image-rendering:optimizeQuality; fill-rule:evenodd; clip-rule:evenodd"
viewBox="0 0 3201.8 3341.07"
 xmlns:xlink="http://www.w3.org/1999/xlink"
 xmlns:xodm="http://www.corel.com/coreldraw/odm/2003">
 <defs>
  <style type="text/css">
   <![CDATA[
    .fil0 {fill:#978667;fill-rule:nonzero}
   ]]>
  </style>
 </defs>
 <g id="Layer_x0020_1">
  <metadata id="CorelCorpID_0Corel-Layer"/>
  <path class="fil0" d="M2018.57 3341.02l-1670.53 0c-191.83,0 -348.04,-156.21 -348.04,-348.04l0 -2644.94c0,-191.83 156.21,-348.04 348.04,-348.04l1670.53 0.05c191.83,0 348.04,156.21 348.04,348.04l0 2644.94c0,191.83 -156.21,348.04 -348.04,348.04l0 -0.05zm-1670.53 -3201.75c-115.12,0 -208.82,93.71 -208.82,208.82l0 2644.94c0,115.12 93.7,208.82 208.82,208.82l1670.53 -0.05c115.12,0 208.82,-93.71 208.82,-208.82l0 -2644.94c0,-115.12 -93.71,-208.82 -208.82,-208.82l-1670.53 0.05z"/>
  <path class="fil0" d="M2714.6 3341.02c-115.12,0 -208.82,-93.71 -208.82,-208.82l0 -2923.37c0,-115.12 93.71,-208.82 208.82,-208.82 115.12,0 208.82,93.7 208.82,208.82l0 2923.37c0,115.12 -93.7,208.82 -208.82,208.82zm0 -3201.75c-38.41,0 -69.61,31.2 -69.61,69.61l0 2923.37c0,38.41 31.2,69.61 69.61,69.61 38.41,0 69.61,-31.2 69.61,-69.61l0 -2923.37c0,-38.41 -31.2,-69.61 -69.61,-69.61z"/>
  <path class="fil0" d="M3132.19 1948.97l-278.38 0c-38.41,0 -69.61,-31.2 -69.61,-69.61 0,-38.41 31.2,-69.61 69.61,-69.61l208.77 0 0 -1113.67 -208.77 0c-38.41,0 -69.61,-31.2 -69.61,-69.61 0,-38.41 31.2,-69.61 69.61,-69.61l278.38 0c38.41,0 69.61,31.2 69.61,69.61l0 1252.89c0,38.41 -31.2,69.61 -69.61,69.61z"/>
  <path class="fil0" d="M2018.57 3062.59l-1670.53 0c-38.41,0 -69.61,-31.2 -69.61,-69.61l0 -2644.94c0,-38.41 31.2,-69.61 69.61,-69.61l1670.53 0.05c38.41,0 69.61,31.2 69.61,69.61l0 2644.94c0,38.41 -31.2,69.61 -69.61,69.61l0 -0.05zm-1600.93 -139.16l1531.32 0 0 -2505.72 -1531.32 -0.05 0 2505.77z"/>
  <path class="fil0" d="M1183.28 2784.21l-556.81 0c-38.41,0 -69.61,-31.2 -69.61,-69.6l0 -540.4c0,-112.49 26.57,-225.24 76.97,-326.05 40.67,-81.45 62.24,-172.62 62.24,-263.65l0 -122.8c0,-38.41 31.2,-69.61 69.61,-69.61l278.43 0c38.41,0 69.61,31.2 69.61,69.61l0 122.8c0,91.02 21.57,182.2 62.24,263.8 50.4,100.65 76.97,213.4 76.97,325.89l0 540.4c0,38.41 -31.2,69.6 -69.61,69.6l-0.05 0zm-487.2 -139.21l417.65 0 0 -470.79c0,-91.02 -21.57,-182.2 -62.24,-263.8 -50.4,-100.65 -76.97,-213.4 -76.97,-325.89l0 -53.19 -139.22 0 0 53.19c0,112.49 -26.57,225.24 -76.97,326.05 -40.67,81.45 -62.24,172.62 -62.24,263.65l0 470.79z"/>
  <path class="fil0" d="M1740.14 2784.21l-556.86 0c-38.41,0 -69.61,-31.2 -69.61,-69.6l0 -540.4c0,-112.49 26.57,-225.24 76.97,-326.05 40.67,-81.45 62.24,-172.62 62.24,-263.65l0 -122.8c0,-38.41 31.2,-69.61 69.61,-69.61l278.43 0c38.41,0 69.61,31.2 69.61,69.61l0 122.8c0,91.02 21.57,182.2 62.24,263.8 50.41,100.65 76.97,213.4 76.97,325.89l0 540.4c0,38.41 -31.2,69.6 -69.61,69.6zm-487.26 -139.21l417.65 0 0 -470.79c0,-91.02 -21.57,-182.2 -62.24,-263.8 -50.41,-100.65 -76.97,-213.4 -76.97,-325.89l0 -53.19 -139.22 0 0 53.19c0,112.49 -26.57,225.24 -76.97,326.05 -40.67,81.45 -62.24,172.62 -62.24,263.65l0 470.79z"/>
  <path class="fil0" d="M2018.57 1252.89l-1670.53 0c-38.41,0 -69.61,-31.2 -69.61,-69.61 0,-38.41 31.2,-69.61 69.61,-69.61l1670.53 0.05c38.41,0 69.61,31.2 69.61,69.61 0,38.41 -31.2,69.61 -69.61,69.61l0 -0.05z"/>
 </g>
</svg>
